#!OML:ASF H:\Terrain\Patient Classification 1\Walking\liu\liu.ASF
:FULLY-SPECIFIED
:DEGREES
210
root 9.34891 16.3131 12.0554 8.38503 5.62263 4.78856
lowerback -4.05593 -4.46446 -7.05307
upperback -0.190743 -5.67545 1.92308
thorax 2.95631 -2.94432 5.53283
lowerneck -22.3659 -1.96111 -10.1672
upperneck 21.9176 -2.03909 10.6035
head 10.9968 -0.459248 5.29202
rclavicle -5.46658e-015 6.36111e-015
rhumerus -56.2063 -6.46099 -64.0494
rradius 18.2684
rwrist 2.78968
rhand -29.8761 -22.0831
rfingers 7.12502
rthumb -3.19783 -52.0389
lclavicle -5.46658e-015 6.36111e-015
lhumerus -13.4513 -19.4172 85.8111
lradius 42.5508
lwrist 14.1392
lhand -19.4032 -29.5285
lfingers 7.12502
lthumb 6.91593 0.338567
rfemur -46.1372 3.22025 18.403
rtibia 40.8425
rfoot -5.48756 -0.744296
rtoes -20.0703
lfemur 22.7209 8.47465 -21.9403
ltibia 7.41451
lfoot 12.6933 -7.21306
ltoes -7.00818
211
root 9.3471 16.3208 12.3011 8.21305 5.40573 4.27638
lowerback -3.97641 -4.36741 -6.54325
upperback -0.0626199 -5.57724 2.08418
thorax 2.99744 -2.89512 5.42637
lowerneck -22.3996 -2.04163 -10.4606
upperneck 21.6683 -2.07271 10.7654
head 10.9205 -0.476943 5.38863
rclavicle -4.14466e-014 2.38542e-015
rhumerus -55.6576 -7.40844 -63.1453
rradius 18.0931
rwrist 3.78792
rhand -28.8973 -22.4544
rfingers 7.12502
rthumb -2.25254 -52.4222
lclavicle -4.14466e-014 2.38542e-015
lhumerus -14.0122 -18.6257 86.1613
lradius 42.5031
lwrist 13.6463
lhand -19.0617 -29.4346
lfingers 7.12502
lthumb 7.24561 0.421314
rfemur -45.6739 3.06399 19.4595
rtibia 41.6954
rfoot -5.15961 -0.0625386
rtoes -16.2937
lfemur 18.9254 9.32065 -20.8766
ltibia 16.1385
lfoot 12.3894 -8.22795
ltoes -11.1645
212
root 9.33788 16.3179 12.5408 8.30245 5.12363 3.77682
lowerback -3.91688 -4.23217 -6.15027
upperback -0.174494 -5.42598 2.29912
thorax 2.80962 -2.80761 5.45476
lowerneck -22.2312 -2.09924 -10.6002
upperneck 21.4065 -2.08476 10.6901
head 10.7947 -0.504999 5.36806
rclavicle -8.85586e-014 -7.15625e-015
rhumerus -55.5109 -7.4928 -63.0793
rradius 18.4356
rwrist 3.78313
rhand -28.9318 -22.4336
rfingers 7.12502
rthumb -2.28585 -52.4011
lclavicle -8.85586e-014 -7.15625e-015
lhumerus -14.7252 -18.0128 86.6828
lradius 42.2205
lwrist 13.2823
lhand -19.1308 -29.5034
lfingers 7.12502
lthumb 7.17886 0.354821
rfemur -45.3886 2.94171 20.5295
rtibia 42.4212
rfoot -5.10174 0.603505
rtoes -13.783
lfemur 16.3132 9.84365 -20.0413
ltibia 22.0383
lfoot 12.8434 -8.51679
ltoes -13.6923
213
root 9.30909 16.3265 12.7942 8.3238 4.9257 2.68634
lowerback -4.03553 -4.08835 -5.35683
upperback -0.29378 -5.27358 2.63959
thorax 2.69051 -2.71788 5.37596
lowerneck -21.5906 -2.06252 -10.4293
upperneck 20.9898 -2.05614 10.4059
head 10.5136 -0.522737 5.20885
rclavicle 1.6201e-014 -3.97569e-015
rhumerus -55.5716 -6.75027 -63.9748
rradius 18.9899
rwrist 2.56325
rhand -29.281 -22.3546
rfingers 7.12502
rthumb -2.62309 -52.3182
lclavicle 1.6201e-014 -3.97569e-015
lhumerus -15.5169 -17.9903 87.0041
lradius 41.7948
lwrist 13.3918
lhand -19.1267 -29.6771
lfingers 7.12502
lthumb 7.18287 0.181009
rfemur -44.7869 3.45645 22.0199
rtibia 42.9898
rfoot -5.78228 0.567606
rtoes -13.7957
lfemur 13.966 10.0724 -18.5392
ltibia 27.1304
lfoot 14.0334 -8.00779
ltoes -12.9342
214
root 9.31397 16.3535 13.0333 8.09282 5.16599 2.28102
lowerback -3.78688 -4.08219 -4.86519
upperback -0.231763 -5.30014 2.73514
thorax 2.58325 -2.72472 5.21302
lowerneck -21.2102 -2.11632 -10.3437
upperneck 20.6264 -2.12993 10.2261
head 10.3175 -0.576543 5.09658
rclavicle 1.14301e-014 2.70347e-014
rhumerus -55.2568 -6.00268 -65.0931
rradius 19.5079
rwrist 1.01983
rhand -29.3115 -22.9883
rfingers 7.12502
rthumb -2.65253 -52.9516
lclavicle 1.14301e-014 2.70347e-014
lhumerus -16.0284 -18.2675 87.299
lradius 41.1699
lwrist 13.345
lhand -19.513 -30.0105
lfingers 7.12502
lthumb 6.80998 -0.140055
rfemur -43.701 2.85179 22.8388
rtibia 43.3996
rfoot -6.62057 1.07805
rtoes -14.4906
lfemur 11.9237 9.49143 -18.0413
ltibia 31.9219
lfoot 15.3976 -6.60943
ltoes -10.0265
